<svg width="18" height="17" viewBox="0 0 18 17" fill="none" xmlns="http://www.w3.org/2000/svg">
<g id="24/ outlined / other / phone / call" clip-path="url(#clip0_54_3285)">
<path id="Vector" d="M11.1672 3.6875C11.8387 3.81851 12.4558 4.14693 12.9396 4.63071C13.4234 5.11448 13.7518 5.73162 13.8828 6.40312M11.1672 0.9375C12.5623 1.09249 13.8633 1.71725 14.8565 2.70919C15.8497 3.70114 16.4761 5.00132 16.6328 6.39625M15.9453 11.8825V13.945C15.9461 14.1365 15.9069 14.326 15.8301 14.5014C15.7534 14.6769 15.6409 14.8343 15.4999 14.9638C15.3588 15.0932 15.1922 15.1918 15.0108 15.2531C14.8294 15.3145 14.6372 15.3372 14.4465 15.32C12.331 15.0901 10.2989 14.3672 8.51342 13.2094C6.8523 12.1538 5.44397 10.7455 4.38842 9.08438C3.22653 7.29083 2.50346 5.24881 2.2778 3.12375C2.26062 2.93363 2.28321 2.74202 2.34414 2.56112C2.40507 2.38021 2.503 2.21397 2.6317 2.07299C2.7604 1.93201 2.91704 1.81936 3.09165 1.74223C3.26627 1.66511 3.45503 1.62518 3.64592 1.625H5.70842C6.04207 1.62172 6.36553 1.73987 6.61851 1.95743C6.87149 2.17499 7.03673 2.47712 7.08342 2.8075C7.17048 3.46755 7.33192 4.11562 7.56467 4.73938C7.65717 4.98545 7.67719 5.25288 7.62236 5.50998C7.56753 5.76708 7.44014 6.00308 7.2553 6.19L6.38217 7.06312C7.36087 8.78431 8.78598 10.2094 10.5072 11.1881L11.3803 10.315C11.5672 10.1302 11.8032 10.0028 12.0603 9.94794C12.3174 9.89311 12.5848 9.91313 12.8309 10.0056C13.4547 10.2384 14.1028 10.3998 14.7628 10.4869C15.0968 10.534 15.4018 10.7022 15.6198 10.9595C15.8378 11.2169 15.9537 11.5453 15.9453 11.8825Z" stroke="#B98E75" strokeWidth="2" strokeLinecap="round" stroke-linejoin="round"/>
</g>
<defs>
<clipPath id="clip0_54_3285">
<rect width="16.5" height="16.5" fill="white" transform="translate(0.820312 0.25)"/>
</clipPath>
</defs>
</svg>
