<svg xmlns="http://www.w3.org/2000/svg" width="69" height="69" viewBox="0 0 69 69" fill="none">
  <path d="M25.4211 12.7105C25.4211 19.7304 19.7304 25.4211 12.7105 25.4211C5.6907 25.4211 0 19.7304 0 12.7105C0 5.6907 5.6907 1.76064e-06 12.7105 1.76064e-06C19.7304 1.76064e-06 25.4211 5.6907 25.4211 12.7105Z" fill="#B98E75"/>
  <path d="M54.4737 41.7632C54.4737 48.783 48.783 54.4737 41.7632 54.4737C34.7433 54.4737 29.0526 48.783 29.0526 41.7632C29.0526 34.7433 34.7433 29.0526 41.7632 29.0526C48.783 29.0526 54.4737 34.7433 54.4737 41.7632Z" fill="#B98E75"/>
  <path d="M0 29.0526H12.7105C19.7304 29.0526 25.4211 34.7433 25.4211 41.7632V69H12.7105C5.6907 69 0 63.3093 0 56.2895V29.0526Z" fill="#B98E75"/>
  <path d="M29.0526 25.4211V12.7105C29.0526 5.6907 34.7433 1.49741e-06 41.7632 1.19056e-06L69 0V12.7105C69 19.7304 63.3093 25.4211 56.2895 25.4211L29.0526 25.4211Z" fill="#B98E75"/>
</svg>